<svg xmlns="http://www.w3.org/2000/svg" xmlns:xlink="http://www.w3.org/1999/xlink" id="Layer_1" x="0" y="0" version="1.1" viewBox="0 0 682.5 768" xml:space="preserve" style="enable-background:new 0 0 682.5 768"><style type="text/css">.st0{fill:none}.st1{fill:#0d8f85}.st2{fill:#3d98d3}.st3{fill:#67ba7d}.st4{fill:url(#SVGID_1_)}.st5{fill:#93dd8f}.st6{fill:#065667}.st7{fill:none;stroke:#54bfee;stroke-width:9;stroke-miterlimit:10}.st8{fill:#fff}.st9{fill:#0d8e84}.st10{fill:#2e729d}.st11{fill:#54c0ef}.st12{fill:#2c3e50}.st13,.st14{fill:none;stroke-miterlimit:10}.st13{stroke:#065667;stroke-width:4}.st14{stroke:#0d8e84}.st15{fill:#54bfee}.st16,.st17{fill:none;stroke:#2c3e50;stroke-width:3;stroke-miterlimit:10}.st17{stroke:#2e729d}</style><pattern id="New_Pattern_Swatch_6" width="72" height="72" y="768" patternUnits="userSpaceOnUse" viewBox="0 -72 72 72" style="overflow:visible"><g><rect width="72" height="72" y="-72" class="st0"/><rect width="72" height="72" y="-72" class="st0"/><path d="M68.9938965-68.6628418L65.6572266-72H54.3427696L48-65.6572266L41.6572304-72H30.3427696L24-65.6572266 L17.6572304-72H6.3427701l-3.3374,3.3374023l-0.00049-0.0004883L0-65.6582031v11.3164024l3.0341799,3.0341797l0.00049-0.0004883 l3.3078599,3.307869L3.02-44.6782188l-0.00049-0.0004883L0-41.6591797v11.3164101l3.0195301,3.0195293l0.00049-0.0004902 l3.3227501,3.323l-3.3081,3.3078594l-0.00049-0.0004902L0-17.6589394v11.3161697l3.00488,3.0048802L3.0051301-3.33813L6.3427701,0 h11.3144608L24-6.3429999L30.3427696,0h11.3144608l6.3425293-6.3429999L54.3427696,0h11.3144569l-0.0002289-0.00024 l4.5117035-4.5122104l1.8308105-1.8308101L72-6.3427701v-11.3161697l-0.0004883,0.0004902l-3.034668-3.0349102 l-0.0004807,0.0004902l-3.307869-3.3078594l3.3227615-3.3227596l0.0002365,0.0002499l3.0199966-3.0200005L72-30.3427696 v-11.3164101l-0.0004883,0.0004883l-3.0199966-3.0200005l-0.0004883,0.0004883l-3.322258-3.3222694l3.3076172-3.307621 l0.0004807,0.0004883l3.034668-3.0346718L72-54.3418007v-11.3164024l-0.0004883,0.0004883l-3.0053711-3.0053787 L68.9938965-68.6628418z M59.9992714-29.6580009l-6.3422699-6.3422394l6.3425293-6.3429985l6.3424721,6.3425102 L59.9992714-29.6580009z M53.6567383-12.0004902l6.3427696-6.3427696l6.3427773,6.3427696l-1.8308182,1.8308096 L63.3369102-8.99512l-3.3371506,3.3376498L53.6567383-12.0004902z M47.9995079-17.657711l-6.3425064-6.3425293 l6.3427582-6.3427601l6.3425293,6.3425293L47.9995079-17.657711z M35.9997597-29.6574707l-6.3427601-6.3427696 l6.3427601-6.3427582l6.3427696,6.3427811L35.9997597-29.6574707z M29.6572304-12.0002403l6.3425293-6.3427601 l6.3427696,6.3427801L36-5.6574702L29.6572304-12.0002403z M24-17.6574707l-6.3427696-6.3430004l6.3425293-6.3425293 l6.3427696,6.3427792L24-17.6574707z M12-18.3434715l6.3427696,6.3432693L12-5.6574702l-6.3427701-6.3432593L12-18.3434715z M11.9997597-42.3429985l6.3427696,6.3427811L12-29.6580009l-6.3427701-6.3427277L11.9997597-42.3429985z M18.3425293-60.0002213 l-6.3427696,6.3427696L5.6572299-60L12-66.3427734L18.3425293-60.0002213z M30.3425293-48.0002213l-6.3427696,6.3427696 l-6.3427601-6.3427887l6.3427601-6.3427582L30.3425293-48.0002213z M42.3427696-60l-6.3429985,6.3425293L29.6572304-60 L36-66.3427734L42.3427696-60z M48-54.3427696l6.342289,6.3422813l-6.3425293,6.3429985l-6.3427582-6.3427505L48-54.3427696z M66.3420029-60l-6.3425293,6.342289L53.6572304-60l6.3425293-6.3427734L66.3420029-60z" class="st1"/></g></pattern><title>login-landscape</title><rect width="682.5" height="768" class="st2"/><rect width="682.5" height="197" y="379.882" class="st3"/><pattern id="SVGID_1_" patternTransform="matrix(1 0 0 -1 2284.2648926 -16458.5878906)" xlink:href="#New_Pattern_Swatch_6"/><rect width="682.5" height="197" y="379.882" class="st4"/><rect width="682.5" height="228" y="540" class="st5"/><rect width="682.5" height="50" y="718" class="st6"/><path d="M267.2409973,717.9904175h-100c0-74.3017578,60.4482422-134.75,134.75-134.75h79.4775391	c19.1918945,0,34.75-15.5581055,34.75-34.75s-15.5581055-34.75-34.75-34.75h-79.4775391	c-74.3017578,0-134.75-60.4492188-134.75-134.7504883h100c0.0215454,19.1830444,15.5669556,34.7286682,34.75,34.7504883h79.4775391	c74.3017578,0,134.7499695,60.4482422,134.7499695,134.75s-60.4482422,134.75-134.75,134.75h-79.4775085	C282.8081055,683.262146,267.2627563,698.8075562,267.2409973,717.9904175z" class="st2"/><path d="M267.2409973,378.9899292c0.0215454,19.1830444,15.5669556,34.7286682,34.75,34.7504883h79.4775391	c74.3017578,0,134.7499695,60.4482422,134.7499695,134.75s-60.4482422,134.75-134.75,134.75h-79.4775085	c-19.1828918,0.0217285-34.728241,15.5671387-34.75,34.75" class="st7"/><path d="M250.5743561,717.9904175c0.0320892-28.3833618,23.0333099-51.3845825,51.4166412-51.416687h79.4775391	c65.2156372,0,118.0833435-52.8677368,118.0833435-118.083374s-52.8677063-118.083313-118.0833435-118.083313h-79.4775391	c-28.3834839-0.0322266-51.3847046-23.0336609-51.4166565-51.4171448" class="st7"/><path d="M233.9076843,717.9904175c0.0424347-37.5838013,30.4995117-68.0408936,68.083313-68.083374h79.4775391	c56.0108643,0.0330811,101.4434509-45.3459473,101.4765015-101.3568115s-45.3459167-101.4434509-101.356781-101.4765015	c-0.039917-0.0000305-0.0798035-0.0000305-0.1197205,0h-79.4775391	c-37.5838928-0.0426331-68.0409698-30.4999084-68.0833282-68.0838013" class="st7"/><path d="M217.2409973,717.9904175c0.0527954-46.7842407,37.9657593-84.6972046,84.75-84.75h79.4775391	c46.8061218,0,84.75-37.9438477,84.75-84.75s-37.9438782-84.75-84.75-84.75h-79.4775391	c-46.7843323-0.0530396-84.6972351-37.966156-84.75-84.7504883" class="st7"/><path d="M200.5743561,717.9904175c0.0631409-55.9846802,45.4319458-101.3535156,101.4166412-101.416687h79.4775391	c37.6013794,0.0064087,68.0885315-30.4703979,68.0949097-68.0717773	c0.0064087-37.6013794-30.4703674-68.0885315-68.0717773-68.0949097c-0.0076904,0-0.0154114,0-0.0231323,0h-79.4775391	c-55.9847412-0.063446-101.3534546-45.432373-101.4166412-101.4171143" class="st7"/><path d="M183.9076843,717.9904175c0.0734863-65.1851807,52.8981476-118.0098267,118.083313-118.083374h79.4775391	c28.396637,0.0093384,51.4242249-23.0031128,51.4335938-51.3997192	c0.0093384-28.3966675-23.0031128-51.4242554-51.3997498-51.4335938c-0.011261,0-0.0225525,0-0.033844,0h-79.4775391	c-65.1851807-0.0738525-118.0097351-52.8986206-118.083313-118.0838013" class="st7"/><path d="M167.2409973,717.9904175c0-74.3017578,60.4482422-134.75,134.75-134.75h79.4775391	c19.1918945,0,34.75-15.5581055,34.75-34.75s-15.5581055-34.75-34.75-34.75h-79.4775391	c-74.3017578,0-134.75-60.4492188-134.75-134.7504883" class="st7"/><path d="M682.5,174.4806519C609.5,174.4806519,559,235,458,235s-228.418457,54.5549316-230,60.7774658L682.5,296	V174.4806519z" class="st6"/><path d="M682.5,133.5942688c-14.0595093-10.8738174-32.7161865-13.770195-49.4107056-7.6708221	c-10.0535889-44.1777725-54.0168457-71.8408661-98.1945801-61.7872543	c-30.5084839,6.9428635-54.4111023,30.6351852-61.623291,61.0811234	c-25.4794617-8.1073532-52.9395752,4.533783-63.3491211,29.1625061	c-18.8599548-8.7562714-41.247345-0.5655975-50.0036011,18.2943573c-0.2763672,0.5952454-0.5371094,1.1976013-0.7819824,1.8064728	H682.5V133.5942688z" class="st8"/><path d="M0,110.3524704h157.2599945c-6.2705383-15.5916672-23.9933624-23.1479416-39.5850296-16.8774033	c-0.4920425,0.1978912-0.9788284,0.4086075-1.4598618,0.6319351c-8.4129333-19.9049225-30.606163-30.1214943-51.1986313-23.5690994	C57.9270134,40.6391258,30.7277927,19.5258255,0,19.5193501" class="st8"/><path d="M87.5,667c0,16.5685425-13.4314575,30-30,30s-30-13.4314575-30-30s13.4314613-70,30-70	S87.5,650.4314575,87.5,667z" class="st9"/><path d="M148,686.4000244c0,14.083252-11.4167328,25.5-25.5,25.5s-25.5-11.416748-25.5-25.5s11.4167404-65.5,25.5-65.5	S148,672.3167114,148,686.4000244z" class="st9"/><polygon points="682.5 718.651 682.5 474.468 661.104 474.468 661.104 451.734 638.369 451.734 638.369 429 575.219 429 575.219 451.734 574.377 451.734 552.485 451.734 552.485 474.468 529.75 474.468 529.75 718.651" class="st10"/><polygon points="529.75 718.651 643.422 718.651 643.422 474.468 620.687 474.468 620.687 451.734 597.953 451.734 597.953 429 575.219 429 575.219 451.734 574.377 451.734 552.485 451.734 552.485 474.468 529.75 474.468" class="st8"/><rect width="91.779" height="13.879" x="540.696" y="484.573" class="st11"/><rect width="91.779" height="13.879" x="540.696" y="503.592" class="st11"/><rect width="91.779" height="13.879" x="540.696" y="522.611" class="st11"/><rect width="91.779" height="13.879" x="540.696" y="541.63" class="st11"/><rect width="91.779" height="13.879" x="540.696" y="560.65" class="st11"/><rect width="91.779" height="13.879" x="540.696" y="579.669" class="st11"/><rect width="91.779" height="13.879" x="540.696" y="598.688" class="st11"/><rect width="91.779" height="13.879" x="540.696" y="617.749" class="st11"/><rect width="91.779" height="13.879" x="540.696" y="636.768" class="st11"/><rect width="91.779" height="13.879" x="540.696" y="655.788" class="st11"/><rect width="91.779" height="13.879" x="540.696" y="674.807" class="st11"/><rect width="91.779" height="13.879" x="540.696" y="693.826" class="st11"/><rect width="29.816" height="13.879" x="652.684" y="484.573" class="st12"/><rect width="29.816" height="13.879" x="652.684" y="503.592" class="st12"/><rect width="29.816" height="13.879" x="652.684" y="522.611" class="st12"/><rect width="29.816" height="13.879" x="652.684" y="541.63" class="st12"/><rect width="29.816" height="13.879" x="652.684" y="560.65" class="st12"/><rect width="29.816" height="13.879" x="652.684" y="579.669" class="st12"/><rect width="29.816" height="13.879" x="652.684" y="598.688" class="st12"/><rect width="29.816" height="13.879" x="652.684" y="617.749" class="st12"/><rect width="29.816" height="13.879" x="652.684" y="636.768" class="st12"/><rect width="29.816" height="13.879" x="652.684" y="655.788" class="st12"/><rect width="29.816" height="13.879" x="652.684" y="674.807" class="st12"/><rect width="29.816" height="13.879" x="652.684" y="693.826" class="st12"/><line x1="57.5" x2="57.5" y1="647" y2="718" class="st13"/><line x1="122.5" x2="122.5" y1="677" y2="718" class="st13"/><path d="M0,174.4806519C73,174.4806519,124.5,235,225.5,235s228.418457,54.5549316,230,60.7774658L0,296V174.4806519z" class="st9"/><path d="M33.2053719,255.8311768C33.2053719,245.5469055,51.8266716,208,51.8266716,208	s18.6213264,37.5469055,18.6213264,47.8311768H33.2053719z" class="st6"/><line x1="51.827" x2="51.827" y1="222.757" y2="262" class="st14"/><path d="M56.3650017,231.6947632c-2.6119995-5.6087799-4.5381889-9.4932098-4.5381889-9.4932098	s-1.9263496,3.8844299-4.5383682,9.4932098" class="st14"/><path d="M56.3650017,239.7274628c-2.6119995-5.6087799-4.5381889-9.4932098-4.5381889-9.4932098	s-1.9263496,3.8844299-4.5383682,9.4932098" class="st14"/><path d="M56.3650017,247.7601929c-2.6119995-5.6087799-4.5381889-9.4932098-4.5381889-9.4932098	s-1.9263496,3.8844299-4.5383682,9.4932098" class="st14"/><path d="M73.205368,255.8311768C73.205368,245.5469055,91.8266678,208,91.8266678,208	s18.6213303,37.5469055,18.6213303,47.8311768H73.205368z" class="st6"/><line x1="91.827" x2="91.827" y1="222.757" y2="262" class="st14"/><path d="M96.3649521,231.6947632c-2.6119995-5.6087799-4.5381927-9.4932098-4.5381927-9.4932098	s-1.9263535,3.8844299-4.5383682,9.4932098" class="st14"/><path d="M96.3649521,239.7274628c-2.6119995-5.6087799-4.5381927-9.4932098-4.5381927-9.4932098	s-1.9263535,3.8844299-4.5383682,9.4932098" class="st14"/><path d="M96.3649521,247.7601929c-2.6119995-5.6087799-4.5381927-9.4932098-4.5381927-9.4932098	s-1.9263535,3.8844299-4.5383682,9.4932098" class="st14"/><path d="M12.2053699,289.8311768C12.2053699,279.5469055,30.8266697,242,30.8266697,242	s18.6213322,37.5469055,18.6213322,47.8311768H12.2053699z" class="st6"/><line x1="30.827" x2="30.827" y1="256.757" y2="296" class="st14"/><path d="M35.3650017,265.6947632c-2.6119995-5.6087646-4.5381889-9.4932251-4.5381889-9.4932251	s-1.9263496,3.8844299-4.5383701,9.4932251" class="st14"/><path d="M35.3650017,273.727478c-2.6119995-5.6087646-4.5381889-9.4932251-4.5381889-9.4932251	s-1.9263496,3.8844299-4.5383701,9.4932251" class="st14"/><path d="M35.3650017,281.7601929c-2.6119995-5.6087646-4.5381889-9.4932251-4.5381889-9.4932251	s-1.9263496,3.8844299-4.5383701,9.4932251" class="st14"/><path d="M93.205368,289.8311768C93.205368,279.5469055,111.8266678,242,111.8266678,242	s18.6213303,37.5469055,18.6213303,47.8311768H93.205368z" class="st6"/><line x1="111.827" x2="111.827" y1="256.757" y2="296" class="st14"/><path d="M116.3649979,265.6947632c-2.6119995-5.6087646-4.5381927-9.4932251-4.5381927-9.4932251	s-1.9263535,3.8844299-4.5383682,9.4932251" class="st14"/><path d="M116.3649979,273.727478c-2.6119995-5.6087646-4.5381927-9.4932251-4.5381927-9.4932251	s-1.9263535,3.8844299-4.5383682,9.4932251" class="st14"/><path d="M116.3649979,281.7601929c-2.6119995-5.6087646-4.5381927-9.4932251-4.5381927-9.4932251	s-1.9263535,3.8844299-4.5383682,9.4932251" class="st14"/><path d="M134.205368,289.8311768C134.205368,279.5469055,152.8266602,242,152.8266602,242	s18.6213379,37.5469055,18.6213379,47.8311768H134.205368z" class="st6"/><line x1="152.827" x2="152.827" y1="256.757" y2="296" class="st14"/><path d="M157.3650055,265.6947632c-2.6119995-5.6087646-4.5381927-9.4932251-4.5381927-9.4932251	s-1.9263458,3.8844299-4.5383759,9.4932251" class="st14"/><path d="M157.3650055,273.727478c-2.6119995-5.6087646-4.5381927-9.4932251-4.5381927-9.4932251	s-1.9263458,3.8844299-4.5383759,9.4932251" class="st14"/><path d="M157.3650055,281.7601929c-2.6119995-5.6087646-4.5381927-9.4932251-4.5381927-9.4932251	s-1.9263458,3.8844299-4.5383759,9.4932251" class="st14"/><path d="M0,322.9715576c11.6599998,0,23.3582287-6.326355,28.8646202-9.9457092	c5.5058479,3.6193542,16.7996101,9.9457092,28.4601784,9.9457092c11.6622009,0,22.9560013-6.3269043,28.4618073-9.9457092	c5.5058517,3.6188049,16.8006973,9.9457092,28.4623566,9.9457092c11.6622086,0,22.9554138-6.3269043,28.4612732-9.9457092	c5.5063934,3.6188049,16.800705,9.9457092,28.4629059,9.9457092c11.6616516,0,22.9554138-6.3269043,28.4612579-9.9457092	c5.5058441,3.6188049,16.799057,9.9457092,28.4612732,9.9457092s22.9570618-6.3269043,28.4629211-9.9457092	c5.5058289,3.6188049,16.7995911,9.9457092,28.4618225,9.9457092c11.6632996,0,22.959259-6.3269043,28.4656372-9.9457092	c5.5063782,3.6188049,16.802887,9.9457092,28.4661865,9.9457092v-11.1953735	c-11.6632996,0-22.9598083-6.3269348-28.4661865-9.9457397c-5.5063782,3.6188049-16.8023376,9.9457397-28.4656372,9.9457397	c-11.6622009,0-22.9559937-6.3269348-28.4618225-9.9457397c-5.5058441,3.6188049-16.800705,9.9457397-28.4629059,9.9457397	s-22.9554138-6.3269348-28.4612732-9.9457397c-5.5058441,3.6188049-16.7996063,9.9457397-28.4612579,9.9457397	c-11.6622162,0-22.9565125-6.3269348-28.4629059-9.9457397c-5.5058441,3.6188049-16.799057,9.9457397-28.4612732,9.9457397	c-11.6616592,0-22.9565125-6.3269348-28.4623566-9.9457397c-5.5058365,3.6188049-16.7996063,9.9457397-28.4618073,9.9457397	c-11.6605682,0-22.9543304-6.326355-28.4601803-9.9457397C23.3582439,305.4497986,11.6600208,311.7761841,0,311.7761841V322.9715576	z" class="st15"/><path d="M0,333.6071472c11.6599998,0,23.3582287-6.326355,28.8646202-9.9457397	c5.5058479,3.6193542,16.7996101,9.9457397,28.4601784,9.9457397c11.6622009,0,22.9560013-6.3269043,28.4618073-9.9457397	c5.5058517,3.6188049,16.8006973,9.9457397,28.4623566,9.9457397c11.6622086,0,22.9554138-6.3269043,28.4612732-9.9457397	c5.5063934,3.6188049,16.800705,9.9457397,28.4629059,9.9457397c11.6616516,0,22.9554138-6.3269043,28.4612579-9.9457397	c5.5058441,3.6188049,16.799057,9.9457397,28.4612732,9.9457397s22.9570618-6.3269043,28.4629211-9.9457397	c5.5058289,3.6188049,16.7995911,9.9457397,28.4618225,9.9457397c11.6632996,0,22.959259-6.3269043,28.4656372-9.9457397	c5.5063782,3.6188049,16.802887,9.9457397,28.4661865,9.9457397v-11.1953735	c-11.6632996,0-22.9598083-6.3269043-28.4661865-9.9457092c-5.5063782,3.6188049-16.8023376,9.9457092-28.4656372,9.9457092	c-11.6622009,0-22.9559937-6.3269043-28.4618225-9.9457092c-5.5058441,3.6188049-16.800705,9.9457092-28.4629059,9.9457092	s-22.9554138-6.3269043-28.4612732-9.9457092c-5.5058441,3.6188049-16.7996063,9.9457092-28.4612579,9.9457092	c-11.6622162,0-22.9565125-6.3269043-28.4629059-9.9457092c-5.5058441,3.6188049-16.799057,9.9457092-28.4612732,9.9457092	c-11.6616592,0-22.9565125-6.3269043-28.4623566-9.9457092c-5.5058365,3.6188049-16.7996063,9.9457092-28.4618073,9.9457092	c-11.6605682,0-22.9543304-6.326355-28.4601803-9.9457092C23.3582439,316.0854187,11.6600208,322.4117737,0,322.4117737V333.6071472	z" class="st2"/><path d="M0,301.7003479c11.6599998,0,23.3582287-6.326355,28.8646202-9.9457397	c5.5058479,3.6193542,16.7996101,9.9457397,28.4601784,9.9457397c11.6622009,0,22.9560013-6.3269348,28.4618073-9.9457397	c5.5058517,3.6188049,16.8006973,9.9457397,28.4623566,9.9457397c11.6622086,0,22.9554138-6.3269348,28.4612732-9.9457397	c5.5063934,3.6188049,16.800705,9.9457397,28.4629059,9.9457397c11.6616516,0,22.9554138-6.3269348,28.4612579-9.9457397	c5.5058441,3.6188049,16.799057,9.9457397,28.4612732,9.9457397s22.9570618-6.3269348,28.4629211-9.9457397	c5.5058289,3.6188049,16.7995911,9.9457397,28.4618225,9.9457397c11.6632996,0,22.959259-6.3269348,28.4656372-9.9457397	c5.5063782,3.6188049,16.802887,9.9457397,28.4661865,9.9457397v-11.195343	c-11.6632996,0-22.9598083-6.3269043-28.4661865-9.9457397c-5.5063782,3.6188049-16.8023376,9.9457397-28.4656372,9.9457397	c-11.6622009,0-22.9559937-6.3269043-28.4618225-9.9457397c-5.5058441,3.6188049-16.800705,9.9457397-28.4629059,9.9457397	s-22.9554138-6.3269043-28.4612732-9.9457397c-5.5058441,3.6188049-16.7996063,9.9457397-28.4612579,9.9457397	c-11.6622162,0-22.9565125-6.3269043-28.4629059-9.9457397c-5.5058441,3.6188049-16.799057,9.9457397-28.4612732,9.9457397	c-11.6616592,0-22.9565125-6.3269043-28.4623566-9.9457397c-5.5058517,3.6188049-16.7996216,9.9457397-28.4618225,9.9457397	c-11.6605682,0-22.9543304-6.326355-28.4601803-9.9457397C23.3582306,284.1786194,11.6600199,290.5050049,0,290.5050049V301.7003479	z" class="st15"/><path d="M0,312.3359985c11.6599998,0,23.3582287-6.326355,28.8646202-9.9457092	c5.5058479,3.6193542,16.7996101,9.9457092,28.4601784,9.9457092c11.6622009,0,22.9560013-6.3269043,28.4618073-9.9457092	c5.5058517,3.6188049,16.8006973,9.9457092,28.4623566,9.9457092c11.6622086,0,22.9554138-6.3269043,28.4612732-9.9457092	c5.5063934,3.6188049,16.800705,9.9457092,28.4629059,9.9457092c11.6616516,0,22.9554138-6.3269043,28.4612579-9.9457092	c5.5058441,3.6188049,16.799057,9.9457092,28.4612732,9.9457092s22.9570618-6.3269043,28.4629211-9.9457092	c5.5058289,3.6188049,16.7995911,9.9457092,28.4618225,9.9457092c11.6632996,0,22.959259-6.3269043,28.4656372-9.9457092	c5.5063782,3.6188049,16.802887,9.9457092,28.4661865,9.9457092v-11.1954041	c-11.6632996,0-22.9598083-6.3269043-28.4661865-9.9457397c-5.5063782,3.6188049-16.8023376,9.9457397-28.4656372,9.9457397	c-11.6622009,0-22.9559937-6.3269043-28.4618225-9.9457397c-5.5058441,3.6188049-16.800705,9.9457397-28.4629059,9.9457397	s-22.9554138-6.3269043-28.4612732-9.9457397c-5.5058441,3.6188049-16.7996063,9.9457397-28.4612579,9.9457397	c-11.6622162,0-22.9565125-6.3269043-28.4629059-9.9457397c-5.5058441,3.6188049-16.799057,9.9457397-28.4612732,9.9457397	c-11.6616592,0-22.9565125-6.3269043-28.4623566-9.9457397c-5.5058365,3.6188049-16.7996063,9.9457397-28.4618073,9.9457397	c-11.6605682,0-22.9543304-6.326355-28.4601803-9.9457397C23.3582439,294.814209,11.6600208,301.1405945,0,301.1405945V312.3359985z" class="st2"/><path d="M0,365.5139465c11.6599998,0,23.3582287-6.326355,28.8646202-9.9457092	c5.5058479,3.6193542,16.7996101,9.9457092,28.4601784,9.9457092c11.6622009,0,22.9560013-6.3269043,28.4618073-9.9457092	c5.5058517,3.6188049,16.8006973,9.9457092,28.4623566,9.9457092c11.6622086,0,22.9554138-6.3269043,28.4612732-9.9457092	c5.5063934,3.6188049,16.800705,9.9457092,28.4629059,9.9457092c11.6616516,0,22.9554138-6.3269043,28.4612579-9.9457092	c5.5058441,3.6188049,16.799057,9.9457092,28.4612732,9.9457092s22.9570618-6.3269043,28.4629211-9.9457092	c5.5058289,3.6188049,16.7995911,9.9457092,28.4618225,9.9457092c11.6632996,0,22.959259-6.3269043,28.4656372-9.9457092	c5.5063782,3.6188049,16.802887,9.9457092,28.4661865,9.9457092V354.318573	c-11.6632996,0-22.9598083-6.3269043-28.4661865-9.9457397c-5.5063782,3.6188049-16.8023376,9.9457397-28.4656372,9.9457397	c-11.6622009,0-22.9559937-6.3269043-28.4618225-9.9457397c-5.5058441,3.6188049-16.800705,9.9457397-28.4629059,9.9457397	s-22.9554138-6.3269043-28.4612732-9.9457397c-5.5058441,3.6188049-16.7996063,9.9457397-28.4612579,9.9457397	c-11.6622162,0-22.9565125-6.3269043-28.4629059-9.9457397c-5.5058441,3.6188049-16.799057,9.9457397-28.4612732,9.9457397	c-11.6616592,0-22.9565125-6.3269043-28.4623566-9.9457397c-5.5058365,3.6188049-16.7996063,9.9457397-28.4618073,9.9457397	c-11.6605682,0-22.9543304-6.326355-28.4601803-9.9457397C23.3582439,347.9921875,11.6600208,354.318573,0,354.318573V365.5139465z" class="st15"/><path d="M0,376.1495361c11.6599998,0,23.3582287-6.326355,28.8646202-9.9457397	c5.5058479,3.6193848,16.7996101,9.9457397,28.4601784,9.9457397c11.6622009,0,22.9560013-6.3269043,28.4618073-9.9457397	c5.5058517,3.6188049,16.8006973,9.9457397,28.4623566,9.9457397c11.6622086,0,22.9554138-6.3269043,28.4612732-9.9457397	c5.5063934,3.6188049,16.800705,9.9457397,28.4629059,9.9457397c11.6616516,0,22.9554138-6.3269043,28.4612579-9.9457397	c5.5058441,3.6188049,16.799057,9.9457397,28.4612732,9.9457397s22.9570618-6.3269043,28.4629211-9.9457397	c5.5058289,3.6188049,16.7995911,9.9457397,28.4618225,9.9457397c11.6632996,0,22.959259-6.3269043,28.4656372-9.9457397	c5.5063782,3.6188049,16.802887,9.9457397,28.4661865,9.9457397v-11.195343	c-11.6632996,0-22.9598083-6.3269348-28.4661865-9.9457397c-5.5063782,3.6188049-16.8023376,9.9457397-28.4656372,9.9457397	c-11.6622009,0-22.9559937-6.3269348-28.4618225-9.9457397c-5.5058441,3.6188049-16.800705,9.9457397-28.4629059,9.9457397	s-22.9554138-6.3269348-28.4612732-9.9457397c-5.5058441,3.6188049-16.7996063,9.9457397-28.4612579,9.9457397	c-11.6622162,0-22.9565125-6.3269348-28.4629059-9.9457397c-5.5058441,3.6188049-16.799057,9.9457397-28.4612732,9.9457397	c-11.6616592,0-22.9565125-6.3269348-28.4623566-9.9457397c-5.5058365,3.6188049-16.7996063,9.9457397-28.4618073,9.9457397	c-11.6605682,0-22.9543304-6.326355-28.4601803-9.9457397C23.3582439,358.6278076,11.6600208,364.9541931,0,364.9541931V376.1495361	z" class="st2"/><path d="M0,386.7851257c11.6599998,0,23.3582287-6.326355,28.8646202-9.9457397	c5.5058479,3.6193542,16.7996101,9.9457397,28.4601784,9.9457397c11.6622009,0,22.9560013-6.3269043,28.4618073-9.9457397	c5.5058517,3.6188049,16.8006973,9.9457397,28.4623566,9.9457397c11.6622086,0,22.9554138-6.3269043,28.4612732-9.9457397	c5.5063934,3.6188049,16.800705,9.9457397,28.4629059,9.9457397c11.6616516,0,22.9554138-6.3269043,28.4612579-9.9457397	c5.5058441,3.6188049,16.799057,9.9457397,28.4612732,9.9457397s22.9570618-6.3269043,28.4629211-9.9457397	c5.5058289,3.6188049,16.7995911,9.9457397,28.4618225,9.9457397c11.6632996,0,22.959259-6.3269043,28.4656372-9.9457397	c5.5063782,3.6188049,16.802887,9.9457397,28.4661865,9.9457397v-11.195343	c-11.6632996,0-22.9598083-6.3269043-28.4661865-9.9457092c-5.5063782,3.6188049-16.8023376,9.9457092-28.4656372,9.9457092	c-11.6622009,0-22.9559937-6.3269043-28.4618225-9.9457092c-5.5058441,3.6188049-16.800705,9.9457092-28.4629059,9.9457092	s-22.9554138-6.3269043-28.4612732-9.9457092c-5.5058441,3.6188049-16.7996063,9.9457092-28.4612579,9.9457092	c-11.6622162,0-22.9565125-6.3269043-28.4629059-9.9457092c-5.5058441,3.6188049-16.799057,9.9457092-28.4612732,9.9457092	c-11.6616592,0-22.9565125-6.3269043-28.4623566-9.9457092c-5.5058365,3.6188049-16.7996063,9.9457092-28.4618073,9.9457092	c-11.6605682,0-22.9543304-6.326355-28.4601803-9.9457092C23.3582439,369.2634277,11.6600208,375.5897827,0,375.5897827V386.7851257	z" class="st15"/><path d="M0,397.4207458c11.6599998,0,23.3582287-6.326355,28.8646202-9.9457397	c5.5058479,3.6193542,16.7996101,9.9457397,28.4601784,9.9457397c11.6622009,0,22.9560013-6.3269043,28.4618073-9.9457397	c5.5058517,3.6188049,16.8006973,9.9457397,28.4623566,9.9457397c11.6622086,0,22.9554138-6.3269043,28.4612732-9.9457397	c5.5063934,3.6188049,16.800705,9.9457397,28.4629059,9.9457397c11.6616516,0,22.9554138-6.3269043,28.4612579-9.9457397	c5.5058441,3.6188049,16.799057,9.9457397,28.4612732,9.9457397s22.9570618-6.3269043,28.4629211-9.9457397	c5.5058289,3.6188049,16.7995911,9.9457397,28.4618225,9.9457397c11.6632996,0,22.959259-6.3269043,28.4656372-9.9457397	c5.5063782,3.6188049,16.802887,9.9457397,28.4661865,9.9457397v-11.1953735	c-11.6632996,0-22.9598083-6.3269043-28.4661865-9.9457397c-5.5063782,3.6188049-16.8023376,9.9457397-28.4656372,9.9457397	c-11.6622009,0-22.9559937-6.3269043-28.4618225-9.9457397c-5.5058441,3.6188049-16.800705,9.9457397-28.4629059,9.9457397	s-22.9554138-6.3269043-28.4612732-9.9457397c-5.5058441,3.6188049-16.7996063,9.9457397-28.4612579,9.9457397	c-11.6622162,0-22.9565125-6.3269043-28.4629059-9.9457397c-5.5058441,3.6188049-16.799057,9.9457397-28.4612732,9.9457397	c-11.6616592,0-22.9565125-6.3269043-28.4623566-9.9457397c-5.5058365,3.6188049-16.7996063,9.9457397-28.4618073,9.9457397	c-11.6605682,0-22.9543304-6.326355-28.4601803-9.9457397C23.3582439,379.8990173,11.6600208,386.2253723,0,386.2253723V397.4207458	z" class="st2"/><path d="M0,344.2427368c11.6599998,0,23.3582287-6.326355,28.8646202-9.9457397	c5.5058479,3.6193542,16.7996101,9.9457397,28.4601784,9.9457397c11.6622009,0,22.9560013-6.3269043,28.4618073-9.9457397	c5.5058517,3.6188049,16.8006973,9.9457397,28.4623566,9.9457397c11.6622086,0,22.9554138-6.3269043,28.4612732-9.9457397	c5.5063934,3.6188049,16.800705,9.9457397,28.4629059,9.9457397c11.6616516,0,22.9554138-6.3269043,28.4612579-9.9457397	c5.5058441,3.6188049,16.799057,9.9457397,28.4612732,9.9457397s22.9570618-6.3269043,28.4629211-9.9457397	c5.5058289,3.6188049,16.7995911,9.9457397,28.4618225,9.9457397c11.6632996,0,22.959259-6.3269043,28.4656372-9.9457397	c5.5063782,3.6188049,16.802887,9.9457397,28.4661865,9.9457397v-11.195343	c-11.6632996,0-22.9598083-6.3269043-28.4661865-9.9457397c-5.5063782,3.6188049-16.8023376,9.9457397-28.4656372,9.9457397	c-11.6622009,0-22.9559937-6.3269043-28.4618225-9.9457397c-5.5058441,3.6188049-16.800705,9.9457397-28.4629059,9.9457397	s-22.9554138-6.3269043-28.4612732-9.9457397c-5.5058441,3.6188049-16.7996063,9.9457397-28.4612579,9.9457397	c-11.6622162,0-22.9565125-6.3269043-28.4629059-9.9457397c-5.5058441,3.6188049-16.799057,9.9457397-28.4612732,9.9457397	c-11.6616592,0-22.9565125-6.3269043-28.4623566-9.9457397c-5.5058365,3.6188049-16.7996063,9.9457397-28.4618073,9.9457397	c-11.6605682,0-22.9543304-6.326355-28.4601803-9.9457397C23.3582439,326.7210388,11.6600208,333.0473938,0,333.0473938V344.2427368	z" class="st15"/><path d="M0,354.8783569c11.6599998,0,23.3582287-6.326355,28.8646202-9.9457397	c5.5058479,3.6193542,16.7996101,9.9457397,28.4601784,9.9457397c11.6622009,0,22.9560013-6.3269348,28.4618073-9.9457397	c5.5058517,3.6188049,16.8006973,9.9457397,28.4623566,9.9457397c11.6622086,0,22.9554138-6.3269348,28.4612732-9.9457397	c5.5063934,3.6188049,16.800705,9.9457397,28.4629059,9.9457397c11.6616516,0,22.9554138-6.3269348,28.4612579-9.9457397	c5.5058441,3.6188049,16.799057,9.9457397,28.4612732,9.9457397s22.9570618-6.3269348,28.4629211-9.9457397	c5.5058289,3.6188049,16.7995911,9.9457397,28.4618225,9.9457397c11.6632996,0,22.959259-6.3269348,28.4656372-9.9457397	c5.5063782,3.6188049,16.802887,9.9457397,28.4661865,9.9457397v-11.195343	c-11.6632996,0-22.9598083-6.3269043-28.4661865-9.9457397c-5.5063782,3.6188049-16.8023376,9.9457397-28.4656372,9.9457397	c-11.6622009,0-22.9559937-6.3269043-28.4618225-9.9457397c-5.5058441,3.6188049-16.800705,9.9457397-28.4629059,9.9457397	s-22.9554138-6.3269043-28.4612732-9.9457397c-5.5058441,3.6188049-16.7996063,9.9457397-28.4612579,9.9457397	c-11.6622162,0-22.9565125-6.3269043-28.4629059-9.9457397c-5.5058441,3.6188049-16.799057,9.9457397-28.4612732,9.9457397	c-11.6616592,0-22.9565125-6.3269043-28.4623566-9.9457397c-5.5058517,3.6188049-16.7996216,9.9457397-28.4618225,9.9457397	c-11.6605682,0-22.9543304-6.326355-28.4601803-9.9457397C23.3582306,337.3565979,11.6600199,343.6830139,0,343.6830139V354.8783569	z" class="st2"/><path d="M341.95224,322.9715576c11.6600037,0,22.9537659-6.326355,28.4601746-9.9457092	c5.5058594,3.6193542,16.7996216,9.9457092,28.4601746,9.9457092c11.6622009,0,22.9559937-6.3269043,28.4618225-9.9457092	c5.5058289,3.6188049,16.8006897,9.9457092,28.4623718,9.9457092c11.6622009,0,22.9554138-6.3269043,28.4612732-9.9457092	c5.5064087,3.6188049,16.8007202,9.9457092,28.4628906,9.9457092c11.6616821,0,22.9554443-6.3269043,28.4612427-9.9457092	c5.5058594,3.6188049,16.7990723,9.9457092,28.4612427,9.9457092s22.9570312-6.3269043,28.4628906-9.9457092	c5.5058594,3.6188049,16.7996216,9.9457092,28.461792,9.9457092c11.6633301,0,22.9592285-6.3269043,28.4656372-9.9457092	c5.5064087,3.6188049,15.8029785,9.9457092,27.4662476,9.9457092v-11.1953735	c-11.663269,0-21.9598389-6.3269348-27.4662476-9.9457397c-5.5064087,3.6188049-16.8023682,9.9457397-28.4656372,9.9457397	c-11.6621704,0-22.9559937-6.3269348-28.461792-9.9457397c-5.5058594,3.6188049-16.8007202,9.9457397-28.4628906,9.9457397	s-22.9554443-6.3269348-28.4612427-9.9457397c-5.5058594,3.6188049-16.7996216,9.9457397-28.4612427,9.9457397	c-11.6622009,0-22.9565125-6.3269348-28.4629211-9.9457397c-5.5058289,3.6188049-16.7990723,9.9457397-28.4612732,9.9457397	c-11.6616516,0-22.9565125-6.3269348-28.4623718-9.9457397c-5.5058594,3.6188049-16.7996216,9.9457397-28.4618225,9.9457397	c-11.660553,0-22.9543152-6.326355-28.4601746-9.9457397c-5.5063782,3.6193542-16.8001709,9.9457397-28.4601746,9.9457397	L341.95224,322.9715576z" class="st15"/><path d="M341.95224,333.6071472c11.6600037,0,22.9537659-6.326355,28.4601746-9.9457397	c5.5058594,3.6193542,16.7996216,9.9457397,28.4601746,9.9457397c11.6622009,0,22.9559937-6.3269043,28.4618225-9.9457397	c5.5058289,3.6188049,16.8006897,9.9457397,28.4623718,9.9457397c11.6622009,0,22.9554138-6.3269043,28.4612732-9.9457397	c5.5064087,3.6188049,16.8007202,9.9457397,28.4628906,9.9457397c11.6616821,0,22.9554443-6.3269043,28.4612427-9.9457397	c5.5058594,3.6188049,16.7990723,9.9457397,28.4612427,9.9457397s22.9570312-6.3269043,28.4628906-9.9457397	c5.5058594,3.6188049,16.7996216,9.9457397,28.461792,9.9457397c11.6633301,0,22.9592285-6.3269043,28.4656372-9.9457397	c5.5064087,3.6188049,15.8029785,9.9457397,27.4662476,9.9457397v-11.1953735	c-11.663269,0-21.9598389-6.3269043-27.4662476-9.9457092c-5.5064087,3.6188049-16.8023682,9.9457092-28.4656372,9.9457092	c-11.6621704,0-22.9559937-6.3269043-28.461792-9.9457092c-5.5058594,3.6188049-16.8007202,9.9457092-28.4628906,9.9457092	s-22.9554443-6.3269043-28.4612427-9.9457092c-5.5058594,3.6188049-16.7996216,9.9457092-28.4612427,9.9457092	c-11.6622009,0-22.9565125-6.3269043-28.4629211-9.9457092c-5.5058289,3.6188049-16.7990723,9.9457092-28.4612732,9.9457092	c-11.6616516,0-22.9565125-6.3269043-28.4623718-9.9457092c-5.5058594,3.6188049-16.7996216,9.9457092-28.4618225,9.9457092	c-11.660553,0-22.9543152-6.326355-28.4601746-9.9457092c-5.5063782,3.6193542-16.8001709,9.9457092-28.4601746,9.9457092	L341.95224,333.6071472z" class="st2"/><path d="M341.95224,301.7003479c11.6600037,0,22.9537659-6.326355,28.4601746-9.9457397	c5.5058594,3.6193542,16.7996216,9.9457397,28.4601746,9.9457397c11.6622009,0,22.9559937-6.3269348,28.4618225-9.9457397	c5.5058289,3.6188049,16.8006897,9.9457397,28.4623718,9.9457397c11.6622009,0,22.9554138-6.3269348,28.4612732-9.9457397	c5.5064087,3.6188049,16.8007202,9.9457397,28.4628906,9.9457397c11.6616821,0,22.9554443-6.3269348,28.4612427-9.9457397	c5.5058594,3.6188049,16.7990723,9.9457397,28.4612427,9.9457397s22.9570312-6.3269348,28.4628906-9.9457397	c5.5058594,3.6188049,16.7996216,9.9457397,28.461792,9.9457397c11.6633301,0,22.9592285-6.3269348,28.4656372-9.9457397	c5.5064087,3.6188049,15.8029785,9.9457397,27.4662476,9.9457397v-11.195343	c-11.663269,0-21.9598389-6.3269043-27.4662476-9.9457397c-5.5064087,3.6188049-16.8023682,9.9457397-28.4656372,9.9457397	c-11.6621704,0-22.9559937-6.3269043-28.461792-9.9457397c-5.5058594,3.6188049-16.8007202,9.9457397-28.4628906,9.9457397	s-22.9554443-6.3269043-28.4612427-9.9457397c-5.5058594,3.6188049-16.7996216,9.9457397-28.4612427,9.9457397	c-11.6622009,0-22.9565125-6.3269043-28.4629211-9.9457397c-5.5058289,3.6188049-16.7990723,9.9457397-28.4612732,9.9457397	c-11.6616516,0-22.9565125-6.3269043-28.4623718-9.9457397c-5.5058594,3.6188049-16.7996216,9.9457397-28.4618225,9.9457397	c-11.660553,0-22.9543152-6.326355-28.4601746-9.9457397c-5.5063782,3.6193542-16.8001709,9.9457397-28.4601746,9.9457397	L341.95224,301.7003479z" class="st15"/><path d="M341.95224,312.3359985c11.6600037,0,22.9537659-6.326355,28.4601746-9.9457092	c5.5058594,3.6193542,16.7996216,9.9457092,28.4601746,9.9457092c11.6622009,0,22.9559937-6.3269043,28.4618225-9.9457092	c5.5058289,3.6188049,16.8006897,9.9457092,28.4623718,9.9457092c11.6622009,0,22.9554138-6.3269043,28.4612732-9.9457092	c5.5064087,3.6188049,16.8007202,9.9457092,28.4628906,9.9457092c11.6616821,0,22.9554443-6.3269043,28.4612427-9.9457092	c5.5058594,3.6188049,16.7990723,9.9457092,28.4612427,9.9457092s22.9570312-6.3269043,28.4628906-9.9457092	c5.5058594,3.6188049,16.7996216,9.9457092,28.461792,9.9457092c11.6633301,0,22.9592285-6.3269043,28.4656372-9.9457092	c5.5064697,3.6187134,15.8029175,9.9457092,27.4662476,9.9457092v-11.1954041	c-11.6633301,0-21.9597778-6.3269043-27.4661865-9.9457397c-5.5064087,3.6188049-16.8023682,9.9457397-28.4656372,9.9457397	c-11.6621704,0-22.9559937-6.3269043-28.461792-9.9457397c-5.5058594,3.6188049-16.8007202,9.9457397-28.4628906,9.9457397	s-22.9554443-6.3269043-28.4612427-9.9457397c-5.5058594,3.6188049-16.7996216,9.9457397-28.4612427,9.9457397	c-11.6622009,0-22.9565125-6.3269043-28.4629211-9.9457397c-5.5058289,3.6188049-16.7990723,9.9457397-28.4612732,9.9457397	c-11.6616516,0-22.9565125-6.3269043-28.4623718-9.9457397c-5.5058594,3.6188049-16.7996216,9.9457397-28.4618225,9.9457397	c-11.660553,0-22.9543152-6.326355-28.4601746-9.9457397c-5.5063782,3.6193542-16.8001709,9.9457397-28.4601746,9.9457397	L341.95224,312.3359985z" class="st2"/><path d="M341.95224,365.5139465c11.6600037,0,22.9537659-6.326355,28.4601746-9.9457092	c5.5058594,3.6193542,16.7996216,9.9457092,28.4601746,9.9457092c11.6622009,0,22.9559937-6.3269043,28.4618225-9.9457092	c5.5058289,3.6188049,16.8006897,9.9457092,28.4623718,9.9457092c11.6622009,0,22.9554138-6.3269043,28.4612732-9.9457092	c5.5064087,3.6188049,16.8007202,9.9457092,28.4628906,9.9457092c11.6616821,0,22.9554443-6.3269043,28.4612427-9.9457092	c5.5058594,3.6188049,16.7990723,9.9457092,28.4612427,9.9457092s22.9570312-6.3269043,28.4628906-9.9457092	c5.5058594,3.6188049,16.7996216,9.9457092,28.461792,9.9457092c11.6633301,0,22.9592285-6.3269043,28.4656372-9.9457092	c5.5064087,3.6188049,15.8029785,9.9457092,27.4662476,9.9457092V354.318573	c-11.663269,0-21.9598389-6.3269043-27.4662476-9.9457397c-5.5064087,3.6188049-16.8023682,9.9457397-28.4656372,9.9457397	c-11.6621704,0-22.9559937-6.3269043-28.461792-9.9457397c-5.5058594,3.6188049-16.8007202,9.9457397-28.4628906,9.9457397	s-22.9554443-6.3269043-28.4612427-9.9457397c-5.5058594,3.6188049-16.7996216,9.9457397-28.4612427,9.9457397	c-11.6622009,0-22.9565125-6.3269043-28.4629211-9.9457397c-5.5058289,3.6188049-16.7990723,9.9457397-28.4612732,9.9457397	c-11.6616516,0-22.9565125-6.3269043-28.4623718-9.9457397c-5.5058594,3.6188049-16.7996216,9.9457397-28.4618225,9.9457397	c-11.660553,0-22.9543152-6.326355-28.4601746-9.9457397c-5.5063782,3.6193542-16.8001709,9.9457397-28.4601746,9.9457397	L341.95224,365.5139465z" class="st15"/><path d="M341.95224,376.1495361c11.6600037,0,22.9537659-6.326355,28.4601746-9.9457397	c5.5058594,3.6193848,16.7996216,9.9457397,28.4601746,9.9457397c11.6622009,0,22.9559937-6.3269043,28.4618225-9.9457397	c5.5058289,3.6188049,16.8006897,9.9457397,28.4623718,9.9457397c11.6622009,0,22.9554138-6.3269043,28.4612732-9.9457397	c5.5064087,3.6188049,16.8007202,9.9457397,28.4628906,9.9457397c11.6616821,0,22.9554443-6.3269043,28.4612427-9.9457397	c5.5058594,3.6188049,16.7990723,9.9457397,28.4612427,9.9457397s22.9570312-6.3269043,28.4628906-9.9457397	c5.5058594,3.6188049,16.7996216,9.9457397,28.461792,9.9457397c11.6633301,0,22.9592285-6.3269043,28.4656372-9.9457397	c5.5064087,3.6188049,15.8029785,9.9457397,27.4662476,9.9457397v-11.195343	c-11.663269,0-21.9598389-6.3269348-27.4662476-9.9457397c-5.5064087,3.6188049-16.8023682,9.9457397-28.4656372,9.9457397	c-11.6621704,0-22.9559937-6.3269348-28.461792-9.9457397c-5.5058594,3.6188049-16.8007202,9.9457397-28.4628906,9.9457397	s-22.9554443-6.3269348-28.4612427-9.9457397c-5.5058594,3.6188049-16.7996216,9.9457397-28.4612427,9.9457397	c-11.6622009,0-22.9565125-6.3269348-28.4629211-9.9457397c-5.5058289,3.6188049-16.7990723,9.9457397-28.4612732,9.9457397	c-11.6616516,0-22.9565125-6.3269348-28.4623718-9.9457397c-5.5058594,3.6188049-16.7996216,9.9457397-28.4618225,9.9457397	c-11.660553,0-22.9543152-6.326355-28.4601746-9.9457397c-5.5063782,3.6193542-16.8001709,9.9457397-28.4601746,9.9457397	L341.95224,376.1495361z" class="st2"/><path d="M341.95224,386.7851257c11.6600037,0,22.9537659-6.326355,28.4601746-9.9457397	c5.5058594,3.6193542,16.7996216,9.9457397,28.4601746,9.9457397c11.6622009,0,22.9559937-6.3269043,28.4618225-9.9457397	c5.5058289,3.6188049,16.8006897,9.9457397,28.4623718,9.9457397c11.6622009,0,22.9554138-6.3269043,28.4612732-9.9457397	c5.5064087,3.6188049,16.8007202,9.9457397,28.4628906,9.9457397c11.6616821,0,22.9554443-6.3269043,28.4612427-9.9457397	c5.5058594,3.6188049,16.7990723,9.9457397,28.4612427,9.9457397s22.9570312-6.3269043,28.4628906-9.9457397	c5.5058594,3.6188049,16.7996216,9.9457397,28.461792,9.9457397c11.6633301,0,22.9592285-6.3269043,28.4656372-9.9457397	c5.5064087,3.6188049,15.8029785,9.9457397,27.4662476,9.9457397v-11.195343	c-11.663269,0-21.9598389-6.3269043-27.4662476-9.9457092c-5.5064087,3.6188049-16.8023682,9.9457092-28.4656372,9.9457092	c-11.6621704,0-22.9559937-6.3269043-28.461792-9.9457092c-5.5058594,3.6188049-16.8007202,9.9457092-28.4628906,9.9457092	s-22.9554443-6.3269043-28.4612427-9.9457092c-5.5058594,3.6188049-16.7996216,9.9457092-28.4612427,9.9457092	c-11.6622009,0-22.9565125-6.3269043-28.4629211-9.9457092c-5.5058289,3.6188049-16.7990723,9.9457092-28.4612732,9.9457092	c-11.6616516,0-22.9565125-6.3269043-28.4623718-9.9457092c-5.5058594,3.6188049-16.7996216,9.9457092-28.4618225,9.9457092	c-11.660553,0-22.9543152-6.326355-28.4601746-9.9457092c-5.5063782,3.6193542-16.8001709,9.9457092-28.4601746,9.9457092	L341.95224,386.7851257z" class="st15"/><path d="M341.95224,397.4207458c11.6600037,0,22.9537659-6.326355,28.4601746-9.9457397	c5.5058594,3.6193542,16.7996216,9.9457397,28.4601746,9.9457397c11.6622009,0,22.9559937-6.3269043,28.4618225-9.9457397	c5.5058289,3.6188049,16.8006897,9.9457397,28.4623718,9.9457397c11.6622009,0,22.9554138-6.3269043,28.4612732-9.9457397	c5.5064087,3.6188049,16.8007202,9.9457397,28.4628906,9.9457397c11.6616821,0,22.9554443-6.3269043,28.4612427-9.9457397	c5.5058594,3.6188049,16.7990723,9.9457397,28.4612427,9.9457397s22.9570312-6.3269043,28.4628906-9.9457397	c5.5058594,3.6188049,16.7996216,9.9457397,28.461792,9.9457397c11.6633301,0,22.9592285-6.3269043,28.4656372-9.9457397	c5.5064087,3.6188049,15.8029785,9.9457397,27.4662476,9.9457397v-11.1953735	c-11.663269,0-21.9598389-6.3269043-27.4662476-9.9457397c-5.5064087,3.6188049-16.8023682,9.9457397-28.4656372,9.9457397	c-11.6621704,0-22.9559937-6.3269043-28.461792-9.9457397c-5.5058594,3.6188049-16.8007202,9.9457397-28.4628906,9.9457397	s-22.9554443-6.3269043-28.4612427-9.9457397c-5.5058594,3.6188049-16.7996216,9.9457397-28.4612427,9.9457397	c-11.6622009,0-22.9565125-6.3269043-28.4629211-9.9457397c-5.5058289,3.6188049-16.7990723,9.9457397-28.4612732,9.9457397	c-11.6616516,0-22.9565125-6.3269043-28.4623718-9.9457397c-5.5058594,3.6188049-16.7996216,9.9457397-28.4618225,9.9457397	c-11.660553,0-22.9543152-6.326355-28.4601746-9.9457397c-5.5063782,3.6193848-16.8001709,9.9457397-28.4601746,9.9457397	L341.95224,397.4207458z" class="st2"/><path d="M341.95224,344.2427368c11.6600037,0,22.9537659-6.326355,28.4601746-9.9457397	c5.5058594,3.6193542,16.7996216,9.9457397,28.4601746,9.9457397c11.6622009,0,22.9559937-6.3269043,28.4618225-9.9457397	c5.5058289,3.6188049,16.8006897,9.9457397,28.4623718,9.9457397c11.6622009,0,22.9554138-6.3269043,28.4612732-9.9457397	c5.5064087,3.6188049,16.8007202,9.9457397,28.4628906,9.9457397c11.6616821,0,22.9554443-6.3269043,28.4612427-9.9457397	c5.5058594,3.6188049,16.7990723,9.9457397,28.4612427,9.9457397s22.9570312-6.3269043,28.4628906-9.9457397	c5.5058594,3.6188049,16.7996216,9.9457397,28.461792,9.9457397c11.6633301,0,22.9592285-6.3269043,28.4656372-9.9457397	c5.5064087,3.6188049,15.8029785,9.9457397,27.4662476,9.9457397v-11.195343	c-11.663269,0-21.9598389-6.3269043-27.4662476-9.9457397c-5.5064087,3.6188049-16.8023682,9.9457397-28.4656372,9.9457397	c-11.6621704,0-22.9559937-6.3269043-28.461792-9.9457397c-5.5058594,3.6188049-16.8007202,9.9457397-28.4628906,9.9457397	s-22.9554443-6.3269043-28.4612427-9.9457397c-5.5058594,3.6188049-16.7996216,9.9457397-28.4612427,9.9457397	c-11.6622009,0-22.9565125-6.3269043-28.4629211-9.9457397c-5.5058289,3.6188049-16.7990723,9.9457397-28.4612732,9.9457397	c-11.6616516,0-22.9565125-6.3269043-28.4623718-9.9457397c-5.5058594,3.6188049-16.7996216,9.9457397-28.4618225,9.9457397	c-11.660553,0-22.9543152-6.326355-28.4601746-9.9457397c-5.5063782,3.6193848-16.8001709,9.9457397-28.4601746,9.9457397	L341.95224,344.2427368z" class="st15"/><path d="M341.95224,354.8783569c11.6600037,0,22.9537659-6.326355,28.4601746-9.9457397	c5.5058594,3.6193542,16.7996216,9.9457397,28.4601746,9.9457397c11.6622009,0,22.9559937-6.3269348,28.4618225-9.9457397	c5.5058289,3.6188049,16.8006897,9.9457397,28.4623718,9.9457397c11.6622009,0,22.9554138-6.3269348,28.4612732-9.9457397	c5.5064087,3.6188049,16.8007202,9.9457397,28.4628906,9.9457397c11.6616821,0,22.9554443-6.3269348,28.4612427-9.9457397	c5.5058594,3.6188049,16.7990723,9.9457397,28.4612427,9.9457397s22.9570312-6.3269348,28.4628906-9.9457397	c5.5058594,3.6188049,16.7996216,9.9457397,28.461792,9.9457397c11.6633301,0,22.9592285-6.3269348,28.4656372-9.9457397	c5.5064087,3.6188049,15.8029785,9.9457397,27.4662476,9.9457397v-11.195343	c-11.663269,0-21.9598389-6.3269043-27.4662476-9.9457397c-5.5064087,3.6188049-16.8023682,9.9457397-28.4656372,9.9457397	c-11.6621704,0-22.9559937-6.3269043-28.461792-9.9457397c-5.5058594,3.6188049-16.8007202,9.9457397-28.4628906,9.9457397	s-22.9554443-6.3269043-28.4612427-9.9457397c-5.5058594,3.6188049-16.7996216,9.9457397-28.4612427,9.9457397	c-11.6622009,0-22.9565125-6.3269043-28.4629211-9.9457397c-5.5058289,3.6188049-16.7990723,9.9457397-28.4612732,9.9457397	c-11.6616516,0-22.9565125-6.3269043-28.4623718-9.9457397c-5.5058594,3.6188049-16.7996216,9.9457397-28.4618225,9.9457397	c-11.660553,0-22.9543152-6.326355-28.4601746-9.9457397c-5.5063782,3.6193542-16.8001709,9.9457397-28.4601746,9.9457397	L341.95224,354.8783569z" class="st2"/><path d="M682.5,304.2328491c-0.0029907-16.5346985-12.4094238-29.9363098-28.9440918-29.9333191	c-16.5305176,0.0029602-29.9303589,13.402832-29.9333496,29.9333191V418H682.5V304.2328491z" class="st8"/><path d="M623.6225586,304.2328491h29.9387207v-29.9387207	C637.0266113,274.2941284,623.6225586,287.6981506,623.6225586,304.2328491z" class="st10"/><rect width="28.939" height="113.767" x="653.561" y="304.233" class="st10"/><path d="M653.5612793,274.2941284v29.9387207H682.5	C682.5,287.6981506,670.0959473,274.2941284,653.5612793,274.2941284z" class="st12"/><line x1="653.561" x2="682.5" y1="323.256" y2="323.256" class="st16"/><line x1="653.561" x2="682.5" y1="342.28" y2="342.28" class="st16"/><line x1="653.561" x2="682.5" y1="361.304" y2="361.304" class="st16"/><line x1="653.561" x2="682.5" y1="380.327" y2="380.327" class="st16"/><line x1="653.561" x2="682.5" y1="399.351" y2="399.351" class="st16"/><line x1="623.623" x2="653.561" y1="323.256" y2="323.256" class="st17"/><line x1="623.623" x2="653.561" y1="342.28" y2="342.28" class="st17"/><line x1="623.623" x2="653.561" y1="361.304" y2="361.304" class="st17"/><line x1="623.623" x2="653.561" y1="380.327" y2="380.327" class="st17"/><line x1="623.623" x2="653.561" y1="399.351" y2="399.351" class="st17"/><path d="M590.3157349,312.4660034c0,0-0.133606,0.0809937-0.3742676,0.2303467v-0.2303467h-95.055481v0.2303467	c-4.4173889,2.7398682-47.1535034,29.8896179-47.1535034,54.782074V418h190.1109009v-50.5216064	C637.8434448,341.2295837,590.3157349,312.4660034,590.3157349,312.4660034z" class="st12"/><path d="M542.7880249,367.4783936c0-26.2488403-47.5277405-55.0124207-47.5277405-55.0124207	s-47.52771,28.7635803-47.52771,55.0124207V418h95.0554504V367.4783936z" class="st8"/><path d="M477.6712646,418v-34.6053162c0.8756409-2.2004395,4.9819946-8.6552734,16.1191101-17.9815063	c0.4926758-0.4125977,0.982666-0.8173828,1.4698792-1.2144165c0.6702576,0.5463562,1.3451233,1.1068726,2.0246582,1.681488	c10.7314453,9.0843201,14.7070007,15.3644409,15.5643311,17.5151672V418H477.6712646z" class="st10"/><rect width="95.055" height="50.147" x="542.788" y="367.853" class="st10"/><path d="M574.2236328,393.4421387c0-4.7655945-8.6288452-9.9877319-8.6288452-9.9877319	s-8.6288452,5.2221375-8.6288452,9.9877319v9.1724243h17.2577515L574.2236328,393.4421387z" class="st12"/><path d="M598.9230957,393.4421387c0-4.7655945-8.6288452-9.9877319-8.6288452-9.9877319	s-8.6288452,5.2221375-8.6288452,9.9877319v9.1724243h17.2576904V393.4421387z" class="st12"/><path d="M623.6225586,393.4421387c0-4.7655945-8.6288452-9.9877319-8.6288452-9.9877319	s-8.6288452,5.2221375-8.6288452,9.9877319v9.1724243h17.2577515L623.6225586,393.4421387z" class="st12"/><polygon points="78.993 382.015 0 445.209 0 540 237.61 540 237.61 445.209 158.617 382.015" class="st10"/><polygon points="237.61 540 79.625 540 79.625 445.209 158.617 382.015 237.61 445.209" class="st8"/><rect width="79.625" height="95.398" y="444.602" class="st12"/><polygon points="92.264 389.713 74.785 389.713 74.785 424.281 92.264 410.298" class="st8"/><rect width="16.646" height="34.568" x="58.139" y="389.713" class="st12"/><rect width="11.858" height="11.858" x="104.902" y="484.389" class="st10"/><rect width="11.858" height="11.858" x="120.85" y="484.389" class="st10"/><rect width="11.858" height="11.858" x="104.902" y="500.336" class="st10"/><rect width="11.858" height="11.858" x="120.85" y="500.336" class="st10"/><rect width="11.858" height="11.858" x="184.527" y="484.389" class="st10"/><rect width="11.858" height="11.858" x="200.474" y="484.389" class="st10"/><rect width="11.858" height="11.858" x="184.527" y="500.336" class="st10"/><rect width="11.858" height="11.858" x="200.474" y="500.336" class="st10"/><rect width="11.858" height="11.858" x="104.902" y="443.945" class="st10"/><rect width="11.858" height="11.858" x="120.85" y="443.945" class="st10"/><rect width="11.858" height="11.858" x="104.902" y="459.892" class="st10"/><rect width="11.858" height="11.858" x="120.85" y="459.892" class="st10"/><rect width="11.858" height="11.858" x="184.527" y="443.945" class="st10"/><rect width="11.858" height="11.858" x="200.474" y="443.945" class="st10"/><rect width="11.858" height="11.858" x="184.527" y="459.892" class="st10"/><rect width="11.858" height="11.858" x="200.474" y="459.892" class="st10"/><rect width="32.861" height="55.611" x="142.187" y="484.389" class="st10"/></svg>